<svg width="100" height="100" viewBox="0 0 100 100" fill="none" xmlns="http://www.w3.org/2000/svg">
<path d="M19.3906 22.0313C19.1287 22.0433 18.874 22.1211 18.6501 22.2577C18.4262 22.3942 18.2403 22.585 18.1094 22.8125L3.33127 48.5219C3.12476 48.8815 3.06932 49.3086 3.17715 49.7095C3.28497 50.1103 3.54723 50.452 3.90627 50.6594L13.5063 56.225C13.8643 56.4323 14.2895 56.4892 14.6889 56.3832C15.0884 56.2772 15.4294 56.0169 15.6375 55.6594L19.1906 49.4813L21.825 51.0125L24.7188 52.6907C24.7264 56.359 26.1832 59.8758 28.7719 62.475C28.393 63.1891 28.2001 63.9872 28.2111 64.7955C28.222 65.6039 28.4364 66.3964 28.8344 67.1C29.7719 68.7375 31.5469 69.2563 33.3188 69.1344C33.2656 70.0375 33.1844 70.9625 33.6625 71.7969C34.9063 73.9657 37.6219 74.6563 39.8438 73.6094C39.9063 74.275 39.7406 74.9531 40.0938 75.5688C40.7327 76.6684 41.781 77.4704 43.0096 77.7995C44.2381 78.1286 45.5469 77.958 46.65 77.325L50 75.3844L53.35 77.325C54.4531 77.958 55.762 78.1286 56.9905 77.7995C58.219 77.4704 59.2673 76.6684 59.9063 75.5688C60.2594 74.9531 60.0938 74.275 60.1563 73.6094C62.375 74.6563 65.0938 73.9657 66.3406 71.7969C66.8188 70.9625 66.7344 70.0375 66.6813 69.1344C68.4563 69.2531 70.2281 68.7375 71.1656 67.1031C72.1094 65.4656 71.6656 63.6688 70.6719 62.1875C71.4781 61.7813 72.3219 61.3875 72.8031 60.5532C72.8656 60.4469 72.8969 60.3344 72.95 60.2219C73.1673 60.0794 73.3456 59.885 73.4688 59.6563C74.6969 57.5313 75.3344 55.1063 75.3344 52.65L76.5688 51.9344L78.175 51.0063L79.7719 50.0781L80.8156 49.475L84.3625 55.6469C84.4651 55.825 84.6019 55.9811 84.7649 56.1063C84.9279 56.2315 85.114 56.3232 85.3126 56.3764C85.5112 56.4295 85.7183 56.4429 85.922 56.4159C86.1258 56.3888 86.3222 56.3219 86.5 56.2188L96.0938 50.6563C96.4506 50.4496 96.7113 50.1103 96.819 49.7122C96.9268 49.3142 96.8727 48.8897 96.6688 48.5313L81.8906 22.8219C81.7469 22.572 81.5368 22.3668 81.2837 22.2289C81.0305 22.091 80.7442 22.0259 80.4563 22.0406C80.2089 22.0527 79.9679 22.1234 79.7531 22.2469L70.1563 27.8125C69.8002 28.0207 69.5408 28.3613 69.4349 28.76C69.3289 29.1587 69.3849 29.5831 69.5906 29.9406L70.0281 30.7031L68.9719 31.3156L67.375 32.2406L65.775 33.1688L64.5063 33.9031C61.909 32.3976 58.894 31.7737 55.9125 32.125C54.0675 32.3504 52.2876 32.9491 50.6813 33.8844C50.6792 33.8844 50.6771 33.8844 50.675 33.8844L50.2531 34.1344L50.0219 34.2688L49.2875 33.8719C47.6642 32.9832 45.8849 32.4155 44.0469 32.2V32.1875C41.0781 31.8406 38.0938 32.4656 35.5188 33.9156L32.6313 32.2406L29.9844 30.7031L30.4156 29.9469C30.6214 29.588 30.6768 29.1619 30.5696 28.7618C30.4624 28.3618 30.2014 28.0205 29.8438 27.8125L20.25 22.25C19.9915 22.0961 19.6942 22.0202 19.3938 22.0313H19.3906ZM20.0375 25.7375L26.9344 29.7375L13.7156 52.7344L6.81877 48.7344L20.0375 25.7375ZM79.9625 25.7375L93.1813 48.7375L86.2844 52.7344L73.0719 29.7344L79.9625 25.7375ZM71.5813 33.4094L79.2594 46.7656L78.2031 47.375L76.6063 48.3031L75.0063 49.2313L74.9281 49.2813C74.6287 48.0898 74.1748 46.9426 73.5781 45.8688C73.5701 45.852 73.5618 45.8353 73.5531 45.8188C73.5375 45.7875 73.5281 45.7563 73.5094 45.725C73.4948 45.6933 73.4792 45.662 73.4625 45.6313L69.6719 39.0313C69.0091 37.8877 68.1874 36.8439 67.2313 35.9313L67.3344 35.8688L68.9344 34.9438L70.5375 34.0156L71.5813 33.4094ZM28.425 33.4156L31.0656 34.9469L32.7625 35.9375C31.8079 36.8476 30.9881 37.8893 30.3281 39.0313L26.5375 45.6313C25.8946 46.7871 25.42 48.0288 25.1281 49.3188L23.3938 48.3094L20.7469 46.7719L28.425 33.4156ZM58.3875 35.15C60.45 35.2969 62.4438 36.0469 64.1188 37.3281C65.2344 38.1844 66.2094 39.2781 66.9625 40.5875L70.75 47.1875C72.125 49.5813 72.4813 52.25 71.9938 54.7375C71.7099 54.4473 71.3895 54.1952 71.0406 53.9875L58.2563 46.5688C58.3393 45.6023 58.1487 44.632 57.7063 43.7688C57.6717 43.6665 57.6267 43.568 57.5719 43.475V43.4688C57.5594 43.4469 57.5406 43.4313 57.5281 43.4063C57.498 43.363 57.4657 43.3213 57.4313 43.2813C57.2781 43.0438 57.125 42.8 56.9438 42.5938C56.7098 42.3367 56.4501 42.1042 56.1688 41.9H56.1625C55.3044 41.2837 54.2861 40.9291 53.2307 40.8792C52.1754 40.8293 51.1281 41.0862 50.2156 41.6188C50.1945 41.6308 50.1737 41.6433 50.1531 41.6563L50.075 41.7063L43.0938 45.7594C42.996 45.81 42.9038 45.8707 42.8188 45.9406L42.6938 46.0156C41.1188 46.925 39.2563 46.3188 37.7781 44.9844L41.9406 42.5594L46.2688 40.05C46.2824 40.0429 46.296 40.0356 46.3094 40.0281L46.3219 40.0219L50.8531 37.3969C50.8542 37.3969 50.8552 37.3969 50.8563 37.3969L52.2438 36.5844C54.0998 35.4996 56.2398 34.9997 58.3844 35.15H58.3875ZM41.5906 35.2188C43.3598 35.1222 45.1266 35.4456 46.7469 36.1625L44.7563 37.3188C44.7134 37.3428 44.6717 37.3689 44.6313 37.3969L40.375 39.8625L34.375 43.3531C34.0175 43.5609 33.7569 43.9018 33.6503 44.3013C33.5437 44.7007 33.5998 45.1262 33.8063 45.4844C35.975 49.2531 40.6469 50.8219 44.2625 48.725L51.2563 44.6656C51.2775 44.6516 51.2983 44.637 51.3188 44.6219L51.6782 44.3906L51.7875 44.3281C52.0619 44.1666 52.3639 44.0574 52.6782 44.0063C53.2719 43.9125 53.8469 44.0563 54.2969 44.3906C54.4719 44.5188 54.6094 44.7031 54.7344 44.8844C54.402 44.9222 54.0906 45.0656 53.8458 45.2936C53.6011 45.5216 53.436 45.8221 53.3747 46.1509C53.3135 46.4798 53.3594 46.8196 53.5057 47.1204C53.6521 47.4212 53.891 47.6671 54.1875 47.8219L55.6094 48.6438C55.6115 48.6459 55.6136 48.6479 55.6156 48.65C55.6998 48.7109 55.7898 48.7633 55.8844 48.8063L69.4813 56.6907C69.676 56.7988 69.847 56.9451 69.9839 57.1209C70.1208 57.2966 70.2208 57.4982 70.278 57.7135C70.3352 57.9288 70.3483 58.1535 70.3167 58.374C70.285 58.5945 70.2092 58.8064 70.0938 58.9969C69.989 59.1913 69.8457 59.3624 69.6726 59.4995C69.4996 59.6367 69.3004 59.7372 69.0872 59.7948C68.8739 59.8524 68.6512 59.866 68.4326 59.8346C68.214 59.8033 68.0041 59.7277 67.8156 59.6125L52.6188 50.8L51.0188 49.8719C50.8413 49.7689 50.6452 49.7019 50.4418 49.6746C50.2384 49.6474 50.0317 49.6605 49.8333 49.7131C49.635 49.7658 49.449 49.857 49.2859 49.9816C49.1228 50.1061 48.9858 50.2616 48.8828 50.4391C48.7798 50.6166 48.7128 50.8126 48.6856 51.016C48.6583 51.2194 48.6714 51.4262 48.7241 51.6245C48.7767 51.8229 48.868 52.0089 48.9925 52.172C49.1171 52.3351 49.2725 52.472 49.45 52.575L51.05 53.5032L51.9781 54.0406L66.2469 62.3157H66.2594L67.8469 63.2375C68.6719 63.7157 68.9344 64.7063 68.4563 65.5406C68.3518 65.735 68.2088 65.9059 68.036 66.0431C67.8633 66.1803 67.6643 66.2807 67.4513 66.3384C67.2384 66.396 67.0159 66.4095 66.7975 66.3782C66.5792 66.3469 66.3695 66.2714 66.1813 66.1563L64.5813 65.2281L49.3844 56.4156L47.7844 55.4875C47.4273 55.3007 47.0118 55.2591 46.6248 55.3714C46.2378 55.4837 45.9091 55.7412 45.7074 56.0901C45.5057 56.439 45.4466 56.8523 45.5425 57.2438C45.6384 57.6352 45.8818 57.9744 46.2219 58.1907L47.8219 59.1188L63.0125 67.9313H63.0188C63.2126 68.0391 63.3828 68.1849 63.519 68.36C63.6553 68.535 63.7548 68.7358 63.8117 68.9502C63.8686 69.1646 63.8816 69.3883 63.8501 69.6079C63.8186 69.8274 63.7431 70.0384 63.6281 70.2281C63.5237 70.4225 63.3807 70.5934 63.2079 70.7306C63.0351 70.8678 62.8362 70.9682 62.6232 71.0259C62.4103 71.0835 62.1878 71.097 61.9694 71.0657C61.751 71.0344 61.5413 70.9589 61.3531 70.8438L58.1469 68.9875L55.1875 67.2688L41.3563 59.2469C41.1788 59.1439 40.9827 59.0769 40.7793 59.0496C40.5759 59.0224 40.3692 59.0355 40.1708 59.0881C39.9725 59.1408 39.7865 59.232 39.6234 59.3566C39.4603 59.4811 39.3233 59.6366 39.2203 59.8141C39.1173 59.9916 39.0503 60.1876 39.023 60.391C38.9958 60.5944 39.0089 60.8012 39.0616 60.9995C39.1142 61.1979 39.2054 61.3839 39.33 61.547C39.4546 61.7101 39.61 61.847 39.7875 61.95L42.9875 63.8063L56.5813 71.6907H56.5844C56.7796 71.7988 56.9509 71.9452 57.0881 72.1212C57.2253 72.2972 57.3255 72.4991 57.3827 72.7148C57.4399 72.9305 57.4529 73.1555 57.421 73.3764C57.3891 73.5972 57.3128 73.8094 57.1969 74C57.0923 74.1946 56.9489 74.3657 56.7757 74.5027C56.6024 74.6398 56.4029 74.74 56.1895 74.7971C55.9761 74.8542 55.7533 74.867 55.5347 74.8347C55.3162 74.8024 55.1066 74.7257 54.9188 74.6094L39.1 65.4407H39.0938C39.0875 65.4406 39.0813 65.4406 39.075 65.4407L38.1219 64.8938L33.1531 62.0125C32.8344 61.825 32.5688 61.5844 32.2781 61.3719C32.0663 61.0295 31.7305 60.7821 31.3406 60.6813C29.4953 59.0158 28.2797 56.7657 27.8984 54.3094C27.5171 51.853 27.9933 49.3403 29.2469 47.1938L33.0375 40.5938C33.9047 39.058 35.1407 37.7625 36.634 36.824C38.1273 35.8856 39.8308 35.3339 41.5906 35.2188ZM12.3 45.4063C11.9684 45.3983 11.6407 45.4803 11.3514 45.6436C11.0622 45.807 10.8221 46.0456 10.6563 46.3344C10.4129 46.7606 10.3477 47.2664 10.4748 47.7409C10.6019 48.2154 10.911 48.6199 11.3344 48.8657C11.758 49.1119 12.2614 49.1791 12.7343 49.0525C13.2071 48.9259 13.6106 48.616 13.8563 48.1906C14.0996 47.7644 14.1649 47.2586 14.0378 46.7841C13.9106 46.3097 13.6015 45.9052 13.1781 45.6594C12.9109 45.5035 12.6089 45.4176 12.3 45.4094V45.4063ZM87.7 45.4063C87.3922 45.415 87.0914 45.5009 86.825 45.6563C86.4011 45.9015 86.0913 46.3058 85.9636 46.7803C85.8359 47.2549 85.9007 47.7609 86.1438 48.1875C86.3884 48.6139 86.7915 48.9252 87.2644 49.053C87.7373 49.1807 88.2413 49.1145 88.6656 48.8688C89.089 48.623 89.3981 48.2185 89.5253 47.744C89.6524 47.2695 89.5871 46.7637 89.3438 46.3375C89.1784 46.0481 88.9384 45.8089 88.6491 45.645C88.3599 45.4811 88.032 45.3986 87.7 45.4063ZM31.3344 64.5219C31.425 64.5781 31.4938 64.6531 31.5844 64.7063L33.9781 66.0907C33.9246 66.1148 33.8724 66.1419 33.8219 66.1719C33.6336 66.2885 33.4234 66.3653 33.2042 66.3974C32.9851 66.4295 32.7617 66.4163 32.5478 66.3585C32.334 66.3008 32.1343 66.1999 31.961 66.0619C31.7878 65.9239 31.6447 65.7518 31.5406 65.5563C31.3632 65.2435 31.2909 64.882 31.3344 64.525V64.5219ZM37.0781 67.8938L40.4219 69.8281L38.6469 70.8594C38.4589 70.9747 38.2494 71.0504 38.0311 71.0819C37.8129 71.1134 37.5905 71.1001 37.3776 71.0428C37.1646 70.9855 36.9656 70.8853 36.7927 70.7485C36.6198 70.6116 36.4766 70.441 36.3719 70.2469C36.2576 70.0564 36.1828 69.8449 36.1519 69.6249C36.121 69.4049 36.1347 69.181 36.1921 68.9664C36.2495 68.7518 36.3496 68.551 36.4862 68.3758C36.6229 68.2007 36.7933 68.0548 36.9875 67.9469C37.0194 67.9303 37.0506 67.9126 37.0813 67.8938H37.0781ZM43.5313 71.6282L46.8875 73.575L45.0813 74.6188C44.8933 74.7347 44.6837 74.811 44.4653 74.843C44.2468 74.875 44.0242 74.8621 43.8109 74.8051C43.5976 74.748 43.3982 74.648 43.2249 74.5112C43.0516 74.3744 42.9081 74.2036 42.8031 74.0094C42.6879 73.8182 42.6124 73.6058 42.5811 73.3848C42.5499 73.1638 42.5636 72.9387 42.6213 72.7231C42.6791 72.5075 42.7798 72.3058 42.9173 72.13C43.0549 71.9542 43.2265 71.8079 43.4219 71.7C43.4593 71.6776 43.4958 71.6536 43.5313 71.6282Z" fill="#000CCC"/>
</svg>
