<svg width="100" height="100" viewBox="0 0 100 100" fill="none" xmlns="http://www.w3.org/2000/svg">
<path fill-rule="evenodd" clip-rule="evenodd" d="M49.95 23.4875C42.6656 23.4875 36.7375 29.4625 36.7375 36.7812C36.7375 40.9 38.6562 44.5437 41.6 46.9844C38.2219 47.2432 34.9885 48.4631 32.2812 50.5C31.2293 50.229 30.1487 50.0852 29.0625 50.0719H28.7812C30.3619 48.3451 31.2421 46.091 31.25 43.75C31.25 38.5594 27.0406 34.3094 21.875 34.3094C16.7093 34.3094 12.5 38.5594 12.5 43.75C12.5 46.3125 13.5343 48.6281 15.1906 50.3344C11.7959 50.9657 8.72987 52.7668 6.52551 55.4245C4.32116 58.0822 3.11791 61.4284 3.12497 64.8812V73.4437C3.12497 73.8581 3.28959 74.2556 3.58262 74.5486C3.87564 74.8416 4.27307 75.0062 4.68747 75.0062H25.0375V76.5062C25.0375 76.9206 25.2021 77.3181 25.4951 77.6111C25.7881 77.9041 26.1856 78.0687 26.6 78.0687H35.5468C35.8169 78.1426 36.1018 78.1426 36.3718 78.0687H63.6218C63.8919 78.1426 64.1768 78.1426 64.4468 78.0687H73.4C73.8144 78.0687 74.2118 77.9041 74.5048 77.6111C74.7978 77.3181 74.9625 76.9206 74.9625 76.5062V75.0062H95.3125C95.7269 75.0062 96.1243 74.8416 96.4173 74.5486C96.7104 74.2556 96.875 73.8581 96.875 73.4437V64.8812C96.882 61.4284 95.6788 58.0822 93.4744 55.4245C91.2701 52.7668 88.204 50.9657 84.8093 50.3344C86.0997 49.0095 86.9724 47.3346 87.3189 45.5179C87.6654 43.7012 87.4705 41.8228 86.7584 40.1159C86.0463 38.409 84.8484 36.949 83.3135 35.9173C81.7786 34.8855 79.9744 34.3275 78.125 34.3125C72.9593 34.3125 68.75 38.5625 68.75 43.7531C68.75 46.1906 69.7031 48.3937 71.2218 50.075H70.9343C69.8093 50.075 68.7468 50.2562 67.7156 50.5031C64.9847 48.451 61.7198 47.2303 58.3125 46.9875C61.2562 44.55 63.1718 40.9 63.1718 36.7844C63.1718 29.4656 57.2343 23.4906 49.9531 23.4906L49.95 23.4875ZM49.95 26.6125C55.5375 26.6125 60.0437 31.1437 60.0437 36.7812C60.0559 39.4247 59.0307 41.9674 57.1882 43.863C55.3458 45.7586 52.8333 46.8557 50.1906 46.9187H49.7125C47.0698 46.8565 44.5571 45.7595 42.715 43.8636C40.8729 41.9678 39.8486 39.4246 39.8625 36.7812C39.8542 35.4504 40.1089 34.131 40.612 32.8989C41.115 31.6667 41.8564 30.5461 42.7937 29.6012C43.731 28.6564 44.8457 27.906 46.0737 27.3931C47.3018 26.8802 48.6191 26.6149 49.95 26.6125ZM21.875 37.4344C25.3375 37.4344 28.125 40.2344 28.125 43.75C28.1324 44.5762 27.9763 45.3957 27.6657 46.1614C27.3552 46.9271 26.8962 47.6237 26.3153 48.2113C25.7344 48.7989 25.043 49.2658 24.281 49.5851C23.5189 49.9044 22.7012 50.0698 21.875 50.0719C18.4125 50.0719 15.625 47.2687 15.625 43.75C15.625 40.2344 18.4125 37.4344 21.875 37.4344ZM78.125 37.4344C81.5875 37.4344 84.375 40.2344 84.375 43.75C84.3824 44.5762 84.2263 45.3957 83.9157 46.1614C83.6052 46.9271 83.1462 47.6237 82.5653 48.2113C81.9844 48.7989 81.293 49.2658 80.531 49.5851C79.7689 49.9044 78.9512 50.0698 78.125 50.0719C74.6625 50.0719 71.875 47.2687 71.875 43.75C71.875 40.2344 74.6625 37.4344 78.125 37.4344ZM42.9812 50.0437H46.8687L45.3187 68.6219C45.2996 68.8479 45.33 69.0755 45.4077 69.2886C45.4854 69.5018 45.6086 69.6955 45.7687 69.8562L48.8937 72.9812C49.0389 73.1267 49.2113 73.2422 49.4011 73.321C49.5909 73.3997 49.7944 73.4403 50 73.4403C50.2055 73.4403 50.409 73.3997 50.5988 73.321C50.7887 73.2422 50.9611 73.1267 51.1062 72.9812L54.2312 69.8562C54.3913 69.6955 54.5145 69.5018 54.5923 69.2886C54.67 69.0755 54.7003 68.8479 54.6812 68.6219L53.1312 50.0437H57.0187C60.3226 50.0509 63.5271 51.1741 66.1125 53.2312C66.1146 53.2323 66.1166 53.2333 66.1187 53.2344C66.1732 53.2984 66.2328 53.358 66.2968 53.4125C67.8096 54.6505 69.0691 56.1689 70.0062 57.8844C70.1375 58.1281 70.2812 58.3625 70.3968 58.6125C70.8733 59.6147 71.236 60.6671 71.4781 61.75C71.5156 61.9187 71.5406 62.0937 71.5718 62.2625C71.7281 63.1375 71.8375 64.0406 71.8375 64.9656V74.9437H65.6V65.9C65.6033 65.6906 65.5646 65.4826 65.486 65.2885C65.4074 65.0944 65.2906 64.918 65.1425 64.7699C64.9944 64.6218 64.8181 64.505 64.624 64.4264C64.4298 64.3479 64.2219 64.3091 64.0125 64.3125C63.8073 64.3157 63.6047 64.3594 63.4164 64.4409C63.2281 64.5225 63.0577 64.6403 62.9149 64.7878C62.7721 64.9352 62.6598 65.1093 62.5843 65.3001C62.5088 65.491 62.4717 65.6948 62.475 65.9V74.9437H37.525V65.9C37.5283 65.6906 37.4896 65.4826 37.411 65.2885C37.3324 65.0944 37.2156 64.918 37.0675 64.7699C36.9194 64.6218 36.7431 64.505 36.549 64.4264C36.3548 64.3479 36.1469 64.3091 35.9375 64.3125C35.7323 64.3157 35.5297 64.3594 35.3414 64.4409C35.1531 64.5225 34.9827 64.6403 34.8399 64.7878C34.6971 64.9352 34.5848 65.1093 34.5093 65.3001C34.4338 65.491 34.3967 65.6948 34.4 65.9V74.9437H28.1625V64.9687C28.1625 64.0437 28.2718 63.1437 28.4312 62.2656C28.4625 62.0937 28.4843 61.9219 28.5218 61.7531C28.764 60.6702 29.1267 59.6178 29.6031 58.6156C29.7187 58.3656 29.8625 58.1312 29.9937 57.8875C30.9309 56.172 32.1904 54.6536 33.7031 53.4156C33.7696 53.3594 33.8313 53.2977 33.8875 53.2312C36.4728 51.1741 39.6773 50.0509 42.9812 50.0437ZM50 50.0625C50.0016 50.0844 50.0037 50.1063 50.0062 50.1281L51.5062 68.1531L50 69.6594L48.4937 68.1531L49.9937 50.1281C49.9963 50.1063 49.9983 50.0844 50 50.0625ZM17.8156 53.1969H29.0656C29.1625 53.1969 29.2562 53.2219 29.3531 53.2406C26.5632 56.5097 25.0327 60.6679 25.0375 64.9656V71.8812H15.625V64.0875C15.6275 63.8786 15.5881 63.6713 15.5092 63.4779C15.4302 63.2845 15.3133 63.1089 15.1653 62.9615C15.0173 62.8141 14.8412 62.6978 14.6475 62.6196C14.4538 62.5414 14.2463 62.5029 14.0375 62.5062C13.6242 62.5128 13.2303 62.6829 12.9421 62.9793C12.6539 63.2757 12.495 63.6741 12.5 64.0875V71.8812H6.24997V64.8812C6.24997 58.375 11.3906 53.1969 17.8156 53.1969ZM70.9343 53.1969H82.1843C88.6093 53.1969 93.75 58.375 93.75 64.8812V71.8812H87.5V64.8687C87.5033 64.6593 87.4646 64.4514 87.386 64.2573C87.3074 64.0631 87.1906 63.8868 87.0425 63.7387C86.8944 63.5906 86.7181 63.4738 86.524 63.3952C86.3298 63.3166 86.1219 63.2779 85.9125 63.2812C85.7073 63.2845 85.5047 63.3281 85.3164 63.4097C85.1281 63.4912 84.9576 63.6091 84.8149 63.7565C84.6721 63.9039 84.5598 64.078 84.4843 64.2689C84.4088 64.4597 84.3717 64.6635 84.375 64.8687V71.8812H74.9625V64.9656C74.9681 60.6683 73.4387 56.5102 70.65 53.2406C70.7437 53.225 70.8375 53.1969 70.9343 53.1969Z" fill="#000CCC"/>
</svg>
