<svg width="100" height="100" viewBox="0 0 100 100" fill="none" xmlns="http://www.w3.org/2000/svg">
<path fill-rule="evenodd" clip-rule="evenodd" d="M95.2625 3.12499C95.1806 3.12899 95.0991 3.13944 95.0188 3.15624C86.3938 3.19687 78.4469 4.98124 71.2344 7.99687C71.1921 8.0107 71.1504 8.02634 71.1094 8.04374C71.0469 8.07499 70.9719 8.09062 70.9031 8.11874C70.7693 8.17605 70.6441 8.25178 70.5313 8.34374C69.9406 8.62499 69.2906 8.95937 68.5969 9.33749C68.5555 9.35449 68.5148 9.37325 68.475 9.39374C68.4 9.43124 68.3313 9.47812 68.2563 9.51562C67.9531 9.68124 67.7813 9.76874 67.4938 9.93124C57.3219 15.2844 48.7438 22.825 41.8281 31.2875C40.5173 30.7189 39.1346 30.333 37.7188 30.1406V30.1437C32.45 29.4969 26.7156 31.4031 21.3875 35.1312C14.2813 40.1062 7.70314 48.3594 3.25314 58.7781C3.11809 59.0962 3.09232 59.4501 3.17987 59.7845C3.26741 60.1188 3.46332 60.4147 3.73694 60.6258C4.01056 60.8369 4.34645 60.9513 4.69205 60.9512C5.03764 60.951 5.37344 60.8363 5.64689 60.625C12.0938 55.625 17.1094 52.9281 20.6156 52.2937C22.3719 51.9812 23.7094 52.1406 24.8281 52.6719C25.7938 53.1312 26.6406 53.9156 27.4156 55.0844C27.2156 55.5531 26.9688 56.0219 26.775 56.4906C26.658 56.7762 26.6282 57.0901 26.6894 57.3927C26.7505 57.6952 26.9 57.9729 27.1188 58.1906L30.475 61.5469C27.5594 65.9406 24.5594 70.9406 21.3125 76.5469C21.3094 76.5469 21.3 76.5437 21.2938 76.575C21.2818 76.5966 21.2703 76.6185 21.2594 76.6406C21.2529 76.6551 21.2467 76.6697 21.2406 76.6844C21.2364 76.6947 21.2322 76.7052 21.2281 76.7156C21.2098 76.7555 21.1931 76.7962 21.1781 76.8375C21.1739 76.8479 21.1697 76.8583 21.1656 76.8687C21.1537 76.9069 21.1433 76.9454 21.1344 76.9844C21.1214 77.0349 21.111 77.086 21.1031 77.1375C21.0991 77.1676 21.096 77.1978 21.0938 77.2281C21.0913 77.2489 21.0892 77.2697 21.0875 77.2906C21.0874 77.3021 21.0874 77.3135 21.0875 77.325C21.087 77.3771 21.0891 77.4293 21.0938 77.4812C21.0963 77.5231 21.1004 77.5648 21.1063 77.6062C21.1082 77.6167 21.1103 77.6271 21.1125 77.6375C21.1224 77.6891 21.1349 77.7402 21.15 77.7906C21.1635 77.8372 21.1791 77.883 21.1969 77.9281C21.2119 77.9684 21.2286 78.008 21.2469 78.0469C21.2669 78.0895 21.2888 78.1312 21.3125 78.1719C21.3146 78.1719 21.3167 78.1719 21.3188 78.1719C21.3249 78.1824 21.3311 78.1928 21.3375 78.2031C21.3612 78.2374 21.3862 78.2708 21.4125 78.3031C21.4176 78.3136 21.4228 78.324 21.4281 78.3344C21.456 78.3668 21.4852 78.3981 21.5156 78.4281C21.5408 78.454 21.5669 78.479 21.5938 78.5031C21.604 78.5158 21.6144 78.5283 21.625 78.5406C21.6332 78.5511 21.6415 78.5616 21.65 78.5719C21.6814 78.5971 21.7137 78.621 21.7469 78.6437C21.7551 78.6543 21.7634 78.6647 21.7719 78.675C21.8073 78.7005 21.8438 78.7244 21.8813 78.7469C21.9268 78.7742 21.9738 78.7993 22.0219 78.8219C22.0456 78.8329 22.0695 78.8433 22.0938 78.8531C22.1164 78.8641 22.1393 78.8745 22.1625 78.8844C22.1729 78.8845 22.1833 78.8845 22.1938 78.8844C22.234 78.8954 22.2747 78.9047 22.3156 78.9125C22.3517 78.9242 22.3882 78.9347 22.425 78.9437C22.449 78.9443 22.4729 78.9443 22.4969 78.9437C22.5396 78.9455 22.5823 78.9455 22.625 78.9437C22.6333 78.9438 22.6417 78.9438 22.65 78.9437C22.755 78.9438 22.8597 78.9334 22.9625 78.9125C23.0121 78.9024 23.0611 78.8899 23.1094 78.875C23.1603 78.8598 23.2103 78.8421 23.2594 78.8219C23.3184 78.7963 23.3758 78.767 23.4313 78.7344C23.4688 78.7031 23.4938 78.6969 23.5281 78.6719C29.1031 75.4375 34.0875 72.4437 38.4656 69.5375L41.7063 72.7781C41.9242 72.9976 42.2025 73.1473 42.5056 73.2085C42.8088 73.2697 43.1234 73.2396 43.4094 73.1219C43.8656 72.9344 44.3281 72.6875 44.7875 72.4906C47.3 74.1375 48.1938 76.0594 47.6375 79.3344C47.0344 82.875 44.3781 87.9156 39.3813 94.3594C39.1699 94.6328 39.0552 94.9686 39.0551 95.3142C39.0549 95.6598 39.1694 95.9957 39.3805 96.2693C39.5916 96.5429 39.8875 96.7388 40.2218 96.8264C40.5561 96.9139 40.91 96.8882 41.2281 96.7531C51.6469 92.3031 59.9 85.7219 64.875 78.6187C69.6219 71.8375 71.3531 64.4125 68.6875 58.1125C77.1031 51.3094 84.625 42.9 89.9844 32.9344C90.2031 32.5531 90.3344 32.3031 90.5688 31.8906C91.0625 31.0344 91.4906 30.2312 91.8469 29.4844C91.8992 29.4053 91.9442 29.3216 91.9813 29.2344C91.9813 29.2312 91.9813 29.2219 91.9875 29.2187C92.0125 29.1562 92.0656 29.0781 92.0906 29.0219C92.1398 28.9046 92.1744 28.7819 92.1938 28.6562C95.3112 21.051 96.9018 12.9068 96.875 4.68749C96.875 4.48177 96.8344 4.27808 96.7555 4.0881C96.6766 3.89812 96.5609 3.72559 96.4152 3.58042C96.2694 3.43525 96.0964 3.32028 95.9061 3.24213C95.7158 3.16398 95.512 3.12417 95.3063 3.12499C95.3042 3.12499 95.3021 3.12499 95.3 3.12499C95.2875 3.12484 95.275 3.12484 95.2625 3.12499ZM93.5781 6.42812C93.4054 12.9282 92.1649 19.3556 89.9063 25.4531L74.6469 10.2C80.7045 7.90177 87.1022 6.62709 93.5781 6.42812ZM71.2531 11.5062L88.6219 28.9125C88.4844 29.1781 88.3188 29.4781 88.1656 29.7656C88.1636 29.7677 88.1615 29.7698 88.1594 29.7719C88.1058 29.8457 88.0587 29.9242 88.0188 30.0062C87.75 30.5312 87.45 31.0375 87.1719 31.5562C86.8719 32.0781 86.5281 32.6594 86.3219 33.0687C86.2918 33.1295 86.2657 33.1921 86.2438 33.2562C76.2375 50.5937 59.1313 62.9875 43.1188 69.775L41.0781 67.7312C43.6969 65.8937 46.1406 64.075 48.1625 62.25C54.0344 56.9656 57.3625 51.3437 56.6219 44.9344C56.6105 44.8196 56.5864 44.7064 56.55 44.5969L56.5188 44.525C56.3998 44.1808 56.1644 43.889 55.8531 43.7L55.7313 43.6281C55.54 43.511 55.3258 43.4364 55.1031 43.4094V43.3781C48.6906 42.6375 43.0625 45.9687 37.775 51.8375C35.9469 53.8656 34.1219 56.3094 32.2813 58.9344L30.1219 56.775C36.9031 40.7906 49.2688 23.9531 66.5906 13.9719C66.6593 13.9474 66.7261 13.9182 66.7906 13.8844C67.9469 13.3 69.9125 12.1969 71.2531 11.5062ZM67.3031 24.9812C65.3219 24.9812 63.3344 25.7312 61.8344 27.2312C60.3916 28.6842 59.5824 30.649 59.5836 32.6966C59.5847 34.7442 60.3962 36.7081 61.8406 38.1594C63.2915 39.6017 65.2542 40.4112 67.3 40.4112C69.3458 40.4112 71.3085 39.6017 72.7594 38.1594C74.2029 36.7082 75.0137 34.745 75.0149 32.6982C75.0161 30.6513 74.2075 28.6871 72.7656 27.2344C72.0481 26.5182 71.1962 25.9508 70.2588 25.5646C69.3214 25.1785 68.3169 24.9813 67.3031 24.9844V24.9812ZM67.3031 28.0875C68.4781 28.0875 69.6531 28.5375 70.5563 29.4437C70.9858 29.8698 71.3265 30.3768 71.5589 30.9354C71.7913 31.494 71.9106 32.0932 71.91 32.6982C71.9094 33.3032 71.7889 33.9021 71.5555 34.4602C71.3221 35.0184 70.9803 35.5247 70.55 35.95C70.1249 36.3797 69.6187 36.7208 69.0609 36.9537C68.503 37.1865 67.9045 37.3064 67.3 37.3064C66.6955 37.3064 66.097 37.1865 65.5392 36.9537C64.9813 36.7208 64.4752 36.3797 64.05 35.95C63.6197 35.5247 63.278 35.0184 63.0445 34.4602C62.8111 33.9021 62.6906 33.3032 62.69 32.6982C62.6894 32.0932 62.8088 31.494 63.0411 30.9354C63.2735 30.3768 63.6143 29.8698 64.0438 29.4437C64.95 28.5375 66.1281 28.0875 67.3031 28.0875ZM34.5344 33.2531C36.2406 33.2687 37.8406 33.7312 39.4219 34.2281C38.9125 34.925 38.4156 35.6594 37.9156 36.3781L37.8063 36.5406C36.5875 38.2937 35.3906 40.1031 34.2406 41.9875C33.2719 43.5531 32.3875 45.125 31.5219 46.7094L31.0656 47.5531C30.2311 49.1162 29.4381 50.7012 28.6875 52.3062C27.8875 51.4219 27.2125 50.3375 26.1719 49.8469C24.3781 48.9969 22.2969 48.8156 20.0625 49.2187C17.025 49.7656 13.4188 51.7 9.47189 54.2594C13.425 47.2531 18.0844 41.2531 23.175 37.6906C26.4313 35.4094 29.6938 33.9594 32.7875 33.4C33.3813 33.2906 33.9656 33.2437 34.5344 33.2531ZM53.2281 46.7781C53.1875 51.3062 51.0094 55.4531 46.0719 59.9C41.6344 63.8906 34.9594 68.1344 27.2906 72.7125C31.8625 65.0375 36.1031 58.3562 40.0938 53.925C44.5469 48.9844 48.6969 46.8156 53.2281 46.7781ZM65.7781 60.5531C67.3094 65.4062 66.3563 71.0531 62.3156 76.825C58.7469 81.925 52.7313 86.5906 45.7094 90.5437C48.2719 86.5687 50.1969 82.9281 50.7188 79.8562C51.325 76.3125 49.9 73.4594 47.5531 71.2281C49.2143 70.4544 50.8545 69.6364 52.4719 68.775L52.7094 68.6469C54.1594 67.8687 55.6094 67.1156 57.05 66.2531C60.0537 64.5016 62.9668 62.5992 65.7781 60.5531ZM24.4438 68.1469L12.2563 80.3406L13.7344 81.825L20.1969 75.3594C21.5932 72.9432 23.0099 70.539 24.4469 68.1469H24.4438ZM31.7375 75.6594C29.45 77.0406 27.0344 78.4531 24.525 79.9125L16.6938 87.7437L18.175 89.2219L31.7375 75.6594ZM19.8125 78.7062L10.7719 87.7437L12.2563 89.2219L21.2938 80.1812C21.2563 80.1812 21.2156 80.15 21.1781 80.1344C21.1665 80.1241 21.1551 80.1137 21.1438 80.1031L20.9969 80.0094L21.0156 80.0406C20.8867 79.9611 20.7644 79.8712 20.65 79.7719C20.6373 79.7606 20.6248 79.7492 20.6125 79.7375C20.5868 79.7154 20.5618 79.6925 20.5375 79.6687C20.5313 79.6688 20.525 79.6688 20.5188 79.6687C20.5167 79.6687 20.5146 79.6687 20.5125 79.6687C20.5072 79.6584 20.502 79.648 20.4969 79.6375C20.475 79.6062 20.45 79.6062 20.4281 79.575C20.4197 79.5647 20.4113 79.5543 20.4031 79.5437C20.3781 79.5125 20.35 79.5 20.325 79.4687C20.2784 79.4182 20.2336 79.3661 20.1906 79.3125C20.1864 79.3021 20.1822 79.2917 20.1781 79.2812C20.1219 79.2094 20.0813 79.1344 20.0313 79.0594C19.9576 78.9668 19.8947 78.8661 19.8438 78.7594C19.8344 78.7281 19.8219 78.7219 19.8125 78.7062ZM10.7719 81.825L9.29064 83.3L10.7719 84.7844L12.25 83.3L10.7719 81.825ZM9.29064 89.2219L7.81251 90.7031L9.29064 92.1812L10.7719 90.7031L9.29064 89.2219ZM15.2094 89.2219L13.7344 90.7031L15.2094 92.1812L16.6938 90.7031L15.2094 89.2219Z" fill="#000CCC"/>
</svg>
