<svg width="100" height="100" viewBox="0 0 100 100" fill="none" xmlns="http://www.w3.org/2000/svg">
<path d="M41.6375 3.20312L40.7531 3.25938H40.6125L38.3968 3.55938L38.8125 6.65312L40.9593 6.36562L41.7781 6.32188L41.6375 3.20312ZM48.1437 3.42188L47.7406 6.5375L49.1562 6.71875L50.6843 7.05625L51.3499 3.99688L49.75 3.65L49.6156 3.61875L48.1468 3.425L48.1437 3.42188ZM31.9656 5.21875L29.4312 6.25L29.3062 6.3125L28.9687 6.4875L30.3968 9.26875L30.6937 9.11875L33.1531 8.10625L31.9656 5.21875ZM57.5375 6.0125L56.3593 8.90625L56.6906 9.04062L59.0406 10.2281L60.4562 7.44687L58.1062 6.25L57.9906 6.19375L57.5375 6.0125ZM43.75 9.09375C28.2406 9.09375 15.625 21.6125 15.625 37.025C15.625 45.4594 19.9062 51.125 23.8593 57.0125C25.5468 59.525 27.1781 62.1063 28.5156 65.0094L27.0031 67.5281L27.2031 67.6531L27.3187 67.7125L29.9125 68.9812L30.0062 68.8C30.9625 71.8 31.5625 75.1875 31.5625 79.2125V91.9062C31.5625 92.3207 31.7271 92.7181 32.0201 93.0111C32.3131 93.3041 32.7106 93.4688 33.125 93.4688H54.375C54.7894 93.4688 55.1868 93.3041 55.4798 93.0111C55.7728 92.7181 55.9375 92.3207 55.9375 91.9062V79.2125C55.9375 75.0875 56.575 71.6344 57.575 68.5781L57.75 68.9344L58.5312 68.55L57.9843 67.4313C59.4406 63.4938 61.5 60.2031 63.6406 57.0125C67.5968 51.125 71.875 45.4594 71.875 37.025C71.875 21.6125 59.2593 9.09375 43.75 9.09375ZM23.4 9.8375L22.0937 10.8094L22 10.8937L20.875 11.8906L22.95 14.2281L24.0218 13.275L25.2687 12.3406L23.4 9.84063V9.8375ZM65.9124 11.225L63.8437 13.5687L65.3812 14.9156L66.0375 15.6031L68.2937 13.4344L67.5968 12.7156L67.5031 12.6281L65.9093 11.2219L65.9124 11.225ZM43.75 12.2188C57.5812 12.2188 68.75 23.3125 68.75 37.025C68.75 44.4094 65.0625 49.2906 61.0468 55.2688C57.2593 60.9063 53.5437 67.7375 53.1093 77.65H45.3125V60.5719C45.3125 60.1575 45.1478 59.7601 44.8548 59.467C44.5618 59.174 44.1644 59.0094 43.75 59.0094C43.3355 59.0094 42.9381 59.174 42.6451 59.467C42.3521 59.7601 42.1875 60.1575 42.1875 60.5719V77.65H34.3937C33.9562 67.7344 30.2375 60.9063 26.4531 55.2688C22.4375 49.2906 18.75 44.4063 18.75 37.025C18.75 23.3125 29.9187 12.2188 43.75 12.2188ZM16.45 16.65L16.125 17.0469L16.0531 17.15L14.5875 19.3188L17.1812 21.0688L18.6156 18.9406L18.6406 18.9031L18.8843 18.6094L16.4468 16.65H16.45ZM40.625 18.4687C40.2106 18.4687 39.8131 18.6334 39.5201 18.9264C39.2271 19.2194 39.0625 19.6168 39.0625 20.0312V22.5031C38.2312 22.7656 37.4281 23.0969 36.6531 23.4937L34.9125 21.7531C34.6194 21.4602 34.2221 21.2956 33.8078 21.2956C33.3934 21.2956 32.9961 21.4602 32.7031 21.7531L28.2812 26.1719C27.9883 26.4649 27.8237 26.8622 27.8237 27.2766C27.8237 27.6909 27.9883 28.0882 28.2812 28.3813L30.025 30.1281C29.6248 30.9008 29.2903 31.7057 29.025 32.5344H26.5625C26.1481 32.5344 25.7506 32.699 25.4576 32.992C25.1646 33.285 25 33.6825 25 34.0969V40.3469C25 40.7613 25.1646 41.1587 25.4576 41.4517C25.7506 41.7448 26.1481 41.9094 26.5625 41.9094H29.0343C29.2968 42.7375 29.6281 43.5406 30.0218 44.3156L28.2843 46.0563C27.9914 46.3493 27.8268 46.7466 27.8268 47.1609C27.8268 47.5753 27.9914 47.9726 28.2843 48.2656L32.7031 52.6844C32.9961 52.9773 33.3934 53.1419 33.8078 53.1419C34.2221 53.1419 34.6194 52.9773 34.9125 52.6844L36.6562 50.9406C37.4343 51.3406 38.2312 51.675 39.0625 51.9406V54.4094C39.0625 54.8238 39.2271 55.2212 39.5201 55.5142C39.8131 55.8073 40.2106 55.9719 40.625 55.9719H46.875C47.2894 55.9719 47.6868 55.8073 47.9798 55.5142C48.2728 55.2212 48.4375 54.8238 48.4375 54.4094V51.9344C49.2687 51.6719 50.0718 51.3438 50.8468 50.9469L52.5874 52.6844C52.8805 52.9773 53.2778 53.1419 53.6921 53.1419C54.1065 53.1419 54.5038 52.9773 54.7968 52.6844L59.2156 48.2656C59.5085 47.9726 59.6731 47.5753 59.6731 47.1609C59.6731 46.7466 59.5085 46.3493 59.2156 46.0563L57.4718 44.3125C57.8718 43.5375 58.2062 42.7375 58.4718 41.9062H60.9375C61.3519 41.9062 61.7493 41.7416 62.0423 41.4486C62.3353 41.1556 62.5 40.7582 62.5 40.3438V34.0938C62.5 33.6793 62.3353 33.2819 62.0423 32.9889C61.7493 32.6959 61.3519 32.5312 60.9375 32.5312H58.4656C58.2044 31.7019 57.8741 30.896 57.4781 30.1219L59.2156 28.3813C59.5085 28.0882 59.6731 27.6909 59.6731 27.2766C59.6731 26.8622 59.5085 26.4649 59.2156 26.1719L54.7968 21.7531C54.5038 21.4602 54.1065 21.2956 53.6921 21.2956C53.2778 21.2956 52.8805 21.4602 52.5874 21.7531L50.8437 23.5C50.071 23.0999 49.2661 22.7654 48.4375 22.5V20.0312C48.4375 19.6168 48.2728 19.2194 47.9798 18.9264C47.6868 18.6334 47.2894 18.4687 46.875 18.4687H40.625ZM72.3875 18.4812L69.8062 20.2406L70.3562 21.0531L71.3437 22.8031L74.0656 21.2719L73.0406 19.4531L72.9749 19.3406L72.3875 18.4812ZM42.1875 21.5938H45.3125V23.5219C45.3114 23.8768 45.4312 24.2215 45.6522 24.4992C45.8731 24.777 46.182 24.9712 46.5281 25.05C47.8968 25.3625 49.2062 25.9 50.3968 26.6469C50.6967 26.8355 51.0518 26.9165 51.4039 26.8768C51.7559 26.837 52.084 26.6788 52.3343 26.4281L53.6937 25.0656L55.9031 27.2781L54.5468 28.6313C54.2961 28.8816 54.1379 29.2096 54.0982 29.5617C54.0584 29.9137 54.1395 30.2688 54.3281 30.5688C55.0718 31.7563 55.6062 33.0656 55.9156 34.4375C55.9936 34.7836 56.1872 35.0928 56.4643 35.3143C56.7415 35.5358 57.0858 35.6564 57.4406 35.6562H59.375V38.7812H57.4468C57.0925 38.7809 56.7485 38.901 56.4714 39.1219C56.1943 39.3428 56.0005 39.6513 55.9218 39.9969C55.6093 41.3656 55.0687 42.675 54.3218 43.8656C54.1332 44.1655 54.0522 44.5206 54.0919 44.8727C54.1317 45.2247 54.2899 45.5528 54.5406 45.8031L55.9031 47.1625L53.6937 49.3719L52.3374 48.0156C52.0871 47.7649 51.7591 47.6067 51.407 47.567C51.055 47.5272 50.6999 47.6083 50.4 47.7969C49.2125 48.5406 47.9031 49.075 46.5343 49.3844C46.1876 49.4618 45.8777 49.6551 45.6556 49.9323C45.4335 50.2095 45.3124 50.5541 45.3125 50.9094V52.8469H42.1875V50.9156C42.1878 50.5613 42.0677 50.2173 41.8468 49.9402C41.6259 49.6631 41.3174 49.4693 40.9718 49.3906C39.6015 49.0784 38.2936 48.5375 37.1031 47.7906C36.8038 47.6012 36.4491 47.5191 36.0971 47.5577C35.7451 47.5963 35.4167 47.7534 35.1656 48.0031L33.8062 49.3656L31.5968 47.1562L32.9531 45.8C33.203 45.5499 33.3608 45.2224 33.4005 44.871C33.4402 44.5197 33.3596 44.1652 33.1718 43.8656C32.4281 42.6719 31.8937 41.3656 31.5843 39.9969C31.5063 39.6508 31.3127 39.3415 31.0356 39.12C30.7584 38.8985 30.4141 38.7779 30.0593 38.7781H28.125V35.6531H30.0531C30.4079 35.6533 30.7522 35.5327 31.0293 35.3112C31.3065 35.0897 31.5 34.7805 31.5781 34.4344C31.8906 33.0656 32.4312 31.7563 33.1781 30.5656C33.3659 30.266 33.4465 29.9116 33.4068 29.5602C33.367 29.2088 33.2093 28.8814 32.9593 28.6313L31.5968 27.2719L33.8062 25.0625L35.1625 26.4156C35.4121 26.6641 35.7384 26.8209 36.0884 26.8606C36.4384 26.9003 36.7916 26.8206 37.0906 26.6344C38.2843 25.8906 39.5968 25.3562 40.9656 25.05C41.3117 24.9727 41.6213 24.7799 41.8434 24.5033C42.0654 24.2267 42.1868 23.8828 42.1875 23.5281V21.5938ZM11.6468 25.2688L10.8656 27.5031L10.8281 27.6281L10.6406 28.3688L13.6656 29.1438L13.8187 28.5344L13.8312 28.4906L14.5937 26.3L11.6468 25.2688ZM76.6 27.2687L73.9125 28.2156L73.65 28.2906L73.6562 28.3219H73.65L73.6812 28.4063L73.6875 28.4375L74.3437 30.9688L74.3468 31.0125L74.3656 31.0906H74.3718L74.45 31.0594L77.45 30.5531L77.4218 30.4313L77.3999 30.2969L76.6718 27.5031L76.6343 27.375L76.6 27.2719V27.2687ZM43.75 29.4062C41.6807 29.4153 39.6988 30.2413 38.2357 31.7045C36.7725 33.1676 35.9465 35.1495 35.9375 37.2188C35.9457 39.2882 36.7714 41.2706 38.2348 42.7339C39.6981 44.1973 41.6805 45.023 43.75 45.0312C45.8194 45.023 47.8018 44.1973 49.2651 42.7339C50.7285 41.2706 51.5542 39.2882 51.5625 37.2188C51.5625 32.9313 48.0375 29.4062 43.75 29.4062ZM43.75 32.5312C46.3312 32.5312 48.4375 34.6375 48.4375 37.2188C48.4375 39.8 46.3312 41.9062 43.75 41.9062C41.1687 41.9062 39.0625 39.8 39.0625 37.2188C39.0625 34.6375 41.1687 32.5312 43.75 32.5312ZM9.51558 34.7719L9.39058 36.3906L9.38745 36.525L9.4062 38.0375L12.5312 38L12.5125 36.6219V36.5906L12.6281 35.0031L9.51558 34.7719ZM75.0156 37.0063L75 39.1063L74.9156 39.9969L78.0281 40.2906L78.1187 39.3438L78.125 39.2094L78.1437 37.0375L75.0187 37.0063H75.0156ZM13.1906 43.9438L10.1125 44.5125L10.2218 45.1188L10.2531 45.2438L10.9187 47.6625L13.9343 46.8375L13.2875 44.4813L13.1906 43.9469V43.9438ZM73.8718 45.8813L73.5906 46.925L73.5781 46.9656L72.9375 48.7156L75.8781 49.7875L76.5562 47.9L76.6 47.7781L76.8906 46.6906L73.8718 45.8781V45.8813ZM16.2 52.2094L13.4812 53.7781L14.6 55.7313L14.6656 55.8344L15.1656 56.5625L17.7437 54.7906L17.3156 54.175L17.3031 54.1438L16.2 52.2094ZM70.3625 53.9719L68.8343 56.2063L68.8125 56.2437L68.6531 56.4313L71.0812 58.4L71.3187 58.1063L71.3937 58.0031L72.9437 55.7313L70.3625 53.9719ZM21.5093 59.4313L19.2625 61.6094L20.0687 62.4375L20.1656 62.525L21.65 63.8188L23.7 61.4563L22.2718 60.2188L21.5093 59.4313ZM64.5874 60.8094L63.3718 61.8781L62.2687 62.6906L64.1187 65.2094L65.2656 64.3625L65.375 64.2812L66.6499 63.1562L64.5874 60.8094ZM73.8281 64.5625C73.4137 64.5625 73.0162 64.7271 72.7232 65.0201C72.4302 65.3132 72.2656 65.7106 72.2656 66.125V67.725C71.8155 67.8773 71.3751 68.0568 70.9468 68.2625L69.8187 67.1375C69.5257 66.8446 69.1283 66.68 68.714 66.68C68.2997 66.68 67.9023 66.8446 67.6093 67.1375L64.2968 70.45C64.1513 70.5951 64.0359 70.7676 63.9571 70.9574C63.8783 71.1472 63.8378 71.3507 63.8378 71.5563C63.8378 71.7618 63.8783 71.9653 63.9571 72.1551C64.0359 72.3449 64.1513 72.5174 64.2968 72.6625L65.4218 73.7906C65.2136 74.219 65.0309 74.6593 64.875 75.1094H63.2812C62.8668 75.1094 62.4694 75.274 62.1763 75.567C61.8833 75.86 61.7187 76.2575 61.7187 76.6719V81.3594C61.7187 81.7738 61.8833 82.1712 62.1763 82.4642C62.4694 82.7573 62.8668 82.9219 63.2812 82.9219H64.8812C65.0374 83.3719 65.2093 83.8125 65.4187 84.2406L64.2937 85.3688C64.0008 85.6618 63.8362 86.0591 63.8362 86.4734C63.8362 86.8878 64.0008 87.2851 64.2937 87.5781L67.6062 90.8906C67.7513 91.0361 67.9238 91.1516 68.1136 91.2304C68.3034 91.3091 68.5069 91.3497 68.7125 91.3497C68.918 91.3497 69.1215 91.3091 69.3113 91.2304C69.5011 91.1516 69.6736 91.0361 69.8187 90.8906L70.9468 89.7656C71.3781 89.975 71.8125 90.1562 72.2656 90.3125V91.9062C72.2656 92.3207 72.4302 92.7181 72.7232 93.0111C73.0162 93.3041 73.4137 93.4688 73.8281 93.4688H78.5156C78.93 93.4688 79.3274 93.3041 79.6204 93.0111C79.9135 92.7181 80.0781 92.3207 80.0781 91.9062V90.3063C80.5281 90.15 80.9687 89.9781 81.3968 89.7719L82.525 90.8938C82.818 91.1867 83.2153 91.3512 83.6296 91.3512C84.044 91.3512 84.4413 91.1867 84.7343 90.8938L88.0468 87.5812C88.1923 87.4361 88.3078 87.2637 88.3866 87.0739C88.4653 86.884 88.5059 86.6805 88.5059 86.475C88.5059 86.2695 88.4653 86.066 88.3866 85.8761C88.3078 85.6863 88.1923 85.5139 88.0468 85.3688L86.9218 84.2406C87.13 83.8122 87.3126 83.3719 87.4687 82.9219H89.0625C89.4769 82.9219 89.8743 82.7573 90.1673 82.4642C90.4603 82.1712 90.625 81.7738 90.625 81.3594V76.6719C90.625 76.2575 90.4603 75.86 90.1673 75.567C89.8743 75.274 89.4769 75.1094 89.0625 75.1094H87.4625C87.3074 74.6594 87.1258 74.2191 86.9187 73.7906L88.05 72.6625C88.3429 72.3695 88.5074 71.9721 88.5074 71.5578C88.5074 71.1435 88.3429 70.7461 88.05 70.4531L84.7374 67.1406C84.5923 66.9951 84.4199 66.8797 84.2301 66.8009C84.0402 66.7221 83.8367 66.6816 83.6312 66.6816C83.4257 66.6816 83.2222 66.7221 83.0323 66.8009C82.8425 66.8797 82.6701 66.9951 82.525 67.1406L81.3968 68.2656C80.9686 68.0572 80.5282 67.8745 80.0781 67.7188V66.125C80.0781 65.7106 79.9135 65.3132 79.6204 65.0201C79.3274 64.7271 78.93 64.5625 78.5156 64.5625H73.8281ZM75.3906 67.6875H76.9531V68.7438C76.9527 69.0981 77.0729 69.4421 77.2938 69.7192C77.5147 69.9963 77.8232 70.1901 78.1687 70.2688C79.1531 70.4938 80.0968 70.8813 80.95 71.4188C81.2499 71.6073 81.605 71.6884 81.957 71.6487C82.3091 71.6089 82.6371 71.4507 82.8875 71.2L83.6312 70.45L84.7343 71.5563L83.9906 72.2969C83.7406 72.547 83.5829 72.8745 83.5431 73.2258C83.5034 73.5772 83.584 73.9316 83.7718 74.2312C84.3031 75.0875 84.6968 76.0281 84.9187 77.0125C84.9959 77.3581 85.1882 77.6673 85.4642 77.8893C85.7401 78.1113 86.0833 78.233 86.4375 78.2344H87.5V79.7969H86.4437C86.0893 79.7965 85.7454 79.9167 85.4683 80.1376C85.1912 80.3584 84.9974 80.667 84.9187 81.0125C84.6952 81.9974 84.3075 82.9376 83.7718 83.7937C83.5832 84.0937 83.5022 84.4488 83.5419 84.8008C83.5817 85.1529 83.7399 85.4809 83.9906 85.7313L84.7343 86.475L83.6312 87.5781L82.8906 86.8344C82.6405 86.5844 82.313 86.4267 81.9616 86.3869C81.6103 86.3472 81.2558 86.4278 80.9562 86.6156C80.0998 87.1493 79.1595 87.5349 78.175 87.7563C77.8283 87.8337 77.5183 88.0269 77.2962 88.3042C77.0741 88.5814 76.9531 88.926 76.9531 89.2812V90.3438H75.3906V89.2875C75.3909 88.9331 75.2708 88.5892 75.0499 88.3121C74.829 88.035 74.5205 87.8412 74.1749 87.7625C73.1901 87.5389 72.2499 87.1512 71.3937 86.6156C71.0938 86.427 70.7387 86.346 70.3866 86.3857C70.0346 86.4255 69.7065 86.5837 69.4562 86.8344L68.7125 87.5781L67.6093 86.475L68.3531 85.7313C68.6023 85.4814 68.7596 85.1545 68.7993 84.8038C68.839 84.4531 68.7588 84.0993 68.5718 83.8C68.036 82.9439 67.6483 82.0037 67.425 81.0188C67.3471 80.6737 67.1545 80.3652 66.8787 80.1439C66.6028 79.9225 66.2599 79.8012 65.9062 79.8H64.8437V78.2375H65.8999C66.2547 78.2377 66.599 78.1171 66.8762 77.8956C67.1534 77.6741 67.3469 77.3649 67.425 77.0188C67.65 76.0344 68.0375 75.0938 68.5718 74.2375C68.7604 73.9376 68.8415 73.5825 68.8017 73.2304C68.762 72.8784 68.6038 72.5503 68.3531 72.3L67.6093 71.5563L68.7125 70.4531L69.4531 71.1906C69.702 71.4421 70.029 71.6015 70.3804 71.643C70.7318 71.6844 71.0868 71.6054 71.3875 71.4188C72.2437 70.8813 73.1843 70.4906 74.1687 70.2688C74.5143 70.1915 74.8235 69.9992 75.0455 69.7233C75.2675 69.4473 75.3892 69.1042 75.3906 68.75V67.6875ZM76.1718 73.8719C73.35 73.8719 71.0281 76.1937 71.0281 79.0156C71.0281 81.8375 73.35 84.1625 76.1718 84.1625C78.9937 84.1625 81.3156 81.8375 81.3156 79.0156C81.3156 76.1937 78.9937 73.8719 76.1718 73.8719ZM76.1718 76.9969C76.4438 76.9862 76.7152 77.0305 76.9696 77.1272C77.2241 77.2239 77.4564 77.371 77.6526 77.5597C77.8488 77.7483 78.0049 77.9747 78.1116 78.2251C78.2182 78.4756 78.2732 78.745 78.2732 79.0172C78.2732 79.2894 78.2182 79.5588 78.1116 79.8092C78.0049 80.0597 77.8488 80.286 77.6526 80.4747C77.4564 80.6634 77.2241 80.8104 76.9696 80.9072C76.7152 81.0039 76.4438 81.0482 76.1718 81.0375C75.6498 81.017 75.1559 80.7951 74.7938 80.4185C74.4317 80.0419 74.2294 79.5397 74.2294 79.0172C74.2294 78.4947 74.4317 77.9925 74.7938 77.6159C75.1559 77.2393 75.6498 77.0174 76.1718 76.9969ZM34.6875 80.775H43.5C43.6676 80.8025 43.8386 80.8025 44.0062 80.775H52.8125V90.3438H34.6875V87.2188H50V84.0938H34.6875V80.775ZM35.7812 96.5938C35.3668 96.6145 34.9776 96.799 34.6992 97.1066C34.4209 97.4143 34.2761 97.82 34.2968 98.2344C34.3175 98.6488 34.502 99.038 34.8097 99.3163C35.1174 99.5947 35.5231 99.7395 35.9375 99.7188H51.5625C51.9769 99.7188 52.3743 99.5541 52.6673 99.2611C52.9603 98.9681 53.125 98.5707 53.125 98.1562C53.125 97.7418 52.9603 97.3444 52.6673 97.0514C52.3743 96.7584 51.9769 96.5938 51.5625 96.5938H35.9375C35.8854 96.5911 35.8333 96.5911 35.7812 96.5938Z" fill="#000CCC"/>
</svg>
